<svg xmlns="http://www.w3.org/2000/svg" xmlns:xlink="http://www.w3.org/1999/xlink" width="500" zoomAndPan="magnify" viewBox="0 0 375 374.999991" height="500" preserveAspectRatio="xMidYMid meet" version="1.0"><defs><clipPath id="6527d536b5"><path d="M 66.691406 50.605469 L 304 50.605469 L 304 323 L 66.691406 323 Z M 66.691406 50.605469 " clip-rule="nonzero"/></clipPath></defs><g clip-path="url(#6527d536b5)"><path fill="#003554" d="M 177.378906 112.144531 C 179.460938 115.707031 182.585938 143.738281 183.394531 150.695312 L 158.933594 150.496094 C 159.972656 146.460938 161.992188 144.277344 162.394531 139.808594 C 158.933594 140.714844 146.601562 144.914062 144.117188 143.539062 Z M 162.089844 139.636719 Z M 162.089844 139.636719 Z M 66.804688 118.765625 L 66.738281 237.644531 C 75.035156 231.292969 83.90625 224.90625 92.171875 218.417969 C 96.640625 214.925781 100.636719 211.53125 105.105469 208.136719 C 109.339844 204.941406 114.113281 200.640625 118.277344 198.320312 L 103.324219 233.273438 C 114.546875 226.21875 154.96875 199.699219 165.417969 196.742188 L 162.089844 209.714844 C 167.0625 209.175781 181.644531 202.890625 193.4375 198.289062 C 210.777344 191.566406 211.917969 190.960938 229.457031 196.171875 L 266.988281 207.363281 C 274.882812 209.882812 279.417969 215.460938 271.996094 221.644531 C 266.953125 225.878906 259.359375 231.5625 256.101562 231.527344 C 240.445312 231.359375 169.414062 229.542969 161.285156 233.175781 C 161.789062 233.511719 161.453125 233.410156 163.066406 234.148438 C 164.007812 234.550781 164.542969 234.71875 165.550781 235.089844 C 169.414062 236.402344 176.574219 238.046875 178.621094 239.796875 C 175.058594 245.40625 142.269531 293.90625 140.65625 298.039062 C 146.433594 300.226562 173.414062 316.761719 181.378906 321.265625 C 186.886719 324.355469 192.429688 318.609375 201.941406 313.265625 L 286.375 264.53125 C 308.148438 251.960938 302.9375 258.785156 302.9375 230.285156 C 299.34375 235.460938 295.007812 240.667969 288.457031 245.644531 L 232.816406 277.875 C 220.183594 285.167969 208.054688 292.191406 195.523438 299.386719 C 180.738281 307.886719 188.835938 307.214844 162.527344 292.796875 C 161.753906 292.359375 161.082031 292.023438 160.410156 291.585938 L 159.167969 290.578125 C 163.132812 284.023438 180.636719 264.0625 191.589844 253.472656 C 196.296875 248.902344 197.472656 246.71875 203.71875 246.28125 C 215.78125 245.476562 247.332031 245.84375 256.167969 245.644531 C 272.027344 245.308594 296.722656 222.117188 302.871094 206.320312 C 293.597656 203.394531 279.488281 195.0625 269.675781 190.589844 C 250.625 181.886719 252.40625 185.515625 244.476562 166.054688 C 240.980469 157.453125 233.65625 154.898438 223.613281 149.621094 C 220.320312 147.871094 218.035156 147.234375 216.722656 144.074219 C 213.429688 136.007812 211.953125 109.253906 211.550781 99.339844 C 197.304688 104.078125 196.160156 107.105469 194.144531 120.984375 C 190.382812 109.289062 186.785156 97.863281 183.660156 85.964844 C 179.359375 88.316406 173.75 93.59375 169.820312 96.820312 L 82.292969 168.105469 C 81.152344 161.484375 81.855469 137.117188 81.855469 128.714844 C 81.855469 126.027344 85.183594 125.320312 87.367188 124.042969 L 132.589844 97.996094 C 138.875 94.433594 182.285156 68.621094 184.199219 68.421875 C 187.023438 68.082031 250.859375 105.894531 261.8125 112.246094 L 287.820312 126.832031 L 287.820312 185.953125 L 302.804688 193.246094 L 302.9375 118.765625 C 300.117188 116.210938 292.253906 112.214844 288.691406 110.195312 C 283.957031 107.542969 278.816406 104.582031 274.011719 101.695312 C 264.132812 95.777344 254.320312 90.199219 244.105469 84.351562 C 237.925781 80.820312 186.183594 50.605469 184.835938 50.605469 L 96.167969 101.390625 C 91.0625 104.449219 69.390625 116.378906 66.804688 118.765625 Z M 66.804688 118.765625 " fill-opacity="1" fill-rule="evenodd"/></g></svg>