<svg xmlns="http://www.w3.org/2000/svg" xmlns:xlink="http://www.w3.org/1999/xlink" width="500" zoomAndPan="magnify" viewBox="0 0 375 374.999991" height="500" preserveAspectRatio="xMidYMid meet" version="1.0"><defs><g/><clipPath id="bc2e5ac04c"><path d="M 122.324219 113.648438 L 251 113.648438 L 251 261 L 122.324219 261 Z M 122.324219 113.648438 " clip-rule="nonzero"/></clipPath></defs><g clip-path="url(#bc2e5ac04c)"><path fill="#003554" d="M 182.136719 146.863281 C 183.265625 148.785156 184.953125 163.914062 185.386719 167.667969 L 172.171875 167.558594 C 172.734375 165.382812 173.824219 164.203125 174.039062 161.792969 C 172.171875 162.28125 165.507812 164.550781 164.164062 163.804688 Z M 173.878906 161.699219 Z M 173.878906 161.699219 Z M 122.390625 150.4375 L 122.351562 214.597656 C 126.835938 211.167969 131.628906 207.722656 136.097656 204.222656 C 138.511719 202.335938 140.671875 200.503906 143.085938 198.671875 C 145.375 196.945312 147.953125 194.625 150.203125 193.375 L 142.125 212.238281 C 148.1875 208.429688 170.027344 194.117188 175.675781 192.519531 L 173.878906 199.523438 C 176.566406 199.234375 184.445312 195.839844 190.816406 193.355469 C 200.183594 189.726562 200.800781 189.402344 210.277344 192.210938 L 230.558594 198.253906 C 234.824219 199.613281 237.277344 202.625 233.265625 205.960938 C 230.539062 208.25 226.4375 211.3125 224.675781 211.296875 C 216.214844 211.203125 177.835938 210.226562 173.441406 212.183594 C 173.714844 212.367188 173.53125 212.3125 174.402344 212.710938 C 174.914062 212.929688 175.203125 213.019531 175.746094 213.21875 C 177.835938 213.925781 181.703125 214.816406 182.808594 215.757812 C 180.886719 218.789062 163.164062 244.964844 162.292969 247.195312 C 165.417969 248.375 179.996094 257.296875 184.296875 259.730469 C 187.277344 261.398438 190.273438 258.296875 195.410156 255.410156 L 241.035156 229.109375 C 252.800781 222.324219 249.984375 226.007812 249.984375 210.625 C 248.042969 213.417969 245.699219 216.230469 242.160156 218.914062 L 212.09375 236.3125 C 205.269531 240.246094 198.714844 244.039062 191.941406 247.921875 C 183.953125 252.507812 188.328125 252.148438 174.113281 244.363281 C 173.695312 244.128906 173.332031 243.949219 172.96875 243.710938 L 172.296875 243.167969 C 174.441406 239.628906 183.898438 228.855469 189.816406 223.140625 C 192.359375 220.675781 192.996094 219.496094 196.371094 219.257812 C 202.890625 218.824219 219.9375 219.023438 224.710938 218.914062 C 233.28125 218.734375 246.625 206.214844 249.949219 197.691406 C 244.9375 196.113281 237.3125 191.613281 232.011719 189.203125 C 221.71875 184.503906 222.679688 186.460938 218.394531 175.960938 C 216.507812 171.316406 212.546875 169.9375 207.121094 167.089844 C 205.339844 166.144531 204.105469 165.800781 203.398438 164.09375 C 201.617188 159.742188 200.820312 145.300781 200.601562 139.953125 C 192.90625 142.507812 192.289062 144.140625 191.199219 151.632812 C 189.164062 145.320312 187.222656 139.152344 185.535156 132.730469 C 183.210938 134 180.175781 136.847656 178.054688 138.589844 L 130.757812 177.066406 C 130.140625 173.492188 130.523438 160.339844 130.523438 155.804688 C 130.523438 154.355469 132.320312 153.972656 133.5 153.285156 L 157.9375 139.226562 C 161.332031 137.304688 184.789062 123.371094 185.824219 123.261719 C 187.347656 123.082031 221.84375 143.488281 227.761719 146.917969 L 241.816406 154.789062 L 241.816406 186.699219 L 249.914062 190.632812 L 249.984375 150.4375 C 248.460938 149.058594 244.210938 146.898438 242.289062 145.808594 C 239.726562 144.378906 236.949219 142.78125 234.351562 141.222656 C 229.015625 138.027344 223.714844 135.015625 218.195312 131.859375 C 214.855469 129.957031 186.894531 113.648438 186.167969 113.648438 L 138.257812 141.058594 C 135.496094 142.707031 123.785156 149.148438 122.390625 150.4375 Z M 122.390625 150.4375 " fill-opacity="1" fill-rule="evenodd"/></g><g fill="#d72638" fill-opacity="1"><g transform="translate(81.165597, 305.159013)"><g><path d="M 16.277344 0.5625 C 23.671875 0.5625 29.421875 -3.9375 30.828125 -10.773438 L 24.234375 -10.773438 C 23.070312 -7.554688 20.097656 -5.507812 16.398438 -5.507812 C 11.617188 -5.507812 8.238281 -9.003906 8.238281 -14.066406 C 8.238281 -19.132812 11.65625 -22.628906 16.4375 -22.628906 C 20.015625 -22.628906 22.949219 -20.699219 24.035156 -17.605469 L 30.625 -17.605469 C 29.019531 -24.355469 23.390625 -28.699219 16.238281 -28.699219 C 7.71875 -28.699219 1.726562 -22.667969 1.726562 -14.066406 C 1.726562 -5.464844 7.71875 0.5625 16.277344 0.5625 Z M 16.277344 0.5625 "/></g></g></g><g fill="#d72638" fill-opacity="1"><g transform="translate(125.651517, 305.159013)"><g><path d="M 0.363281 0 L 7.195312 0 L 9.082031 -4.863281 L 20.257812 -4.863281 L 22.144531 0 L 28.980469 0 L 17.804688 -28.132812 L 11.535156 -28.132812 Z M 10.730469 -9.886719 L 14.671875 -20.175781 L 18.648438 -9.886719 Z M 10.730469 -9.886719 "/></g></g></g><g fill="#d72638" fill-opacity="1"><g transform="translate(167.043298, 305.159013)"><g><path d="M 1.6875 0 L 23.152344 0 L 23.152344 -5.789062 L 10.007812 -5.789062 L 22.828125 -23.511719 L 22.828125 -28.132812 L 2.128906 -28.132812 L 2.128906 -22.347656 L 14.550781 -22.347656 L 1.6875 -4.621094 Z M 1.6875 0 "/></g></g></g><g fill="#d72638" fill-opacity="1"><g transform="translate(203.93451, 305.159013)"><g><path d="M 3.375 0 L 9.765625 0 L 9.765625 -28.132812 L 3.375 -28.132812 Z M 3.375 0 "/></g></g></g><g fill="#d72638" fill-opacity="1"><g transform="translate(229.132293, 305.159013)"><g><path d="M 3.375 0 L 22.308594 0 L 22.308594 -5.425781 L 9.726562 -5.425781 L 9.726562 -11.574219 L 20.78125 -11.574219 L 20.78125 -16.921875 L 9.726562 -16.921875 L 9.726562 -22.75 L 21.863281 -22.75 L 21.863281 -28.132812 L 3.375 -28.132812 Z M 3.375 0 "/></g></g></g><g fill="#d72638" fill-opacity="1"><g transform="translate(265.541302, 305.159013)"><g><path d="M 3.375 0 L 9.765625 0 L 9.765625 -8.761719 L 13.988281 -8.761719 L 19.011719 0 L 26.40625 0 L 20.578125 -9.765625 C 23.953125 -11.253906 25.925781 -14.308594 25.925781 -18.449219 C 25.925781 -24.4375 21.824219 -28.132812 15.394531 -28.132812 L 3.375 -28.132812 Z M 9.6875 -14.148438 L 9.6875 -22.667969 L 14.550781 -22.667969 C 17.683594 -22.667969 19.453125 -21.140625 19.453125 -18.40625 C 19.453125 -15.675781 17.683594 -14.148438 14.550781 -14.148438 Z M 9.6875 -14.148438 "/></g></g></g><g fill="#00a6fb" fill-opacity="1"><g transform="translate(76.073282, 333.483141)"><g><path d="M 2.53125 -7.5625 L 2.53125 -4.546875 L 6.859375 -4.546875 L 6.859375 -3.484375 L 2.53125 -3.484375 L 2.53125 0 L 1.296875 0 L 1.296875 -8.625 L 7.390625 -8.625 L 7.390625 -7.5625 Z M 2.53125 -7.5625 "/></g></g></g><g fill="#00a6fb" fill-opacity="1"><g transform="translate(93.766977, 333.483141)"><g><path d="M 4.875 0.09375 C 3.71875 0.09375 2.816406 -0.234375 2.171875 -0.890625 C 1.535156 -1.546875 1.21875 -2.488281 1.21875 -3.71875 L 1.21875 -8.625 L 2.453125 -8.625 L 2.453125 -3.765625 C 2.453125 -1.921875 3.257812 -1 4.875 -1 C 5.664062 -1 6.269531 -1.222656 6.6875 -1.671875 C 7.113281 -2.128906 7.328125 -2.828125 7.328125 -3.765625 L 7.328125 -8.625 L 8.515625 -8.625 L 8.515625 -3.71875 C 8.515625 -2.476562 8.191406 -1.53125 7.546875 -0.875 C 6.910156 -0.226562 6.019531 0.09375 4.875 0.09375 Z M 4.875 0.09375 "/></g></g></g><g fill="#00a6fb" fill-opacity="1"><g transform="translate(113.383863, 333.483141)"><g><path d="M 1.296875 -8.625 L 2.53125 -8.625 L 2.53125 -1.078125 L 7.203125 -1.078125 L 7.203125 0 L 1.296875 0 Z M 1.296875 -8.625 "/></g></g></g><g fill="#00a6fb" fill-opacity="1"><g transform="translate(130.572103, 333.483141)"><g><path d="M 1.296875 -8.625 L 2.53125 -8.625 L 2.53125 -1.078125 L 7.203125 -1.078125 L 7.203125 0 L 1.296875 0 Z M 1.296875 -8.625 "/></g></g></g><g fill="#00a6fb" fill-opacity="1"><g transform="translate(147.76035, 333.483141)"><g><path d="M 3.8125 0.09375 C 3.15625 0.09375 2.523438 -0.00390625 1.921875 -0.203125 C 1.316406 -0.398438 0.84375 -0.660156 0.5 -0.984375 L 0.96875 -1.953125 C 1.289062 -1.648438 1.707031 -1.40625 2.21875 -1.21875 C 2.738281 -1.039062 3.269531 -0.953125 3.8125 -0.953125 C 4.519531 -0.953125 5.050781 -1.070312 5.40625 -1.3125 C 5.757812 -1.550781 5.9375 -1.875 5.9375 -2.28125 C 5.9375 -2.570312 5.835938 -2.8125 5.640625 -3 C 5.453125 -3.1875 5.21875 -3.328125 4.9375 -3.421875 C 4.65625 -3.523438 4.253906 -3.640625 3.734375 -3.765625 C 3.085938 -3.921875 2.5625 -4.078125 2.15625 -4.234375 C 1.757812 -4.390625 1.421875 -4.628906 1.140625 -4.953125 C 0.859375 -5.273438 0.71875 -5.710938 0.71875 -6.265625 C 0.71875 -6.722656 0.835938 -7.132812 1.078125 -7.5 C 1.316406 -7.875 1.679688 -8.171875 2.171875 -8.390625 C 2.671875 -8.617188 3.285156 -8.734375 4.015625 -8.734375 C 4.523438 -8.734375 5.023438 -8.664062 5.515625 -8.53125 C 6.015625 -8.394531 6.441406 -8.207031 6.796875 -7.96875 L 6.390625 -6.984375 C 6.023438 -7.210938 5.632812 -7.382812 5.21875 -7.5 C 4.8125 -7.625 4.410156 -7.6875 4.015625 -7.6875 C 3.316406 -7.6875 2.789062 -7.554688 2.4375 -7.296875 C 2.09375 -7.046875 1.921875 -6.71875 1.921875 -6.3125 C 1.921875 -6.019531 2.019531 -5.78125 2.21875 -5.59375 C 2.414062 -5.40625 2.660156 -5.257812 2.953125 -5.15625 C 3.242188 -5.050781 3.640625 -4.941406 4.140625 -4.828125 C 4.785156 -4.671875 5.304688 -4.515625 5.703125 -4.359375 C 6.097656 -4.203125 6.4375 -3.960938 6.71875 -3.640625 C 7.007812 -3.328125 7.15625 -2.898438 7.15625 -2.359375 C 7.15625 -1.898438 7.03125 -1.484375 6.78125 -1.109375 C 6.53125 -0.742188 6.15625 -0.453125 5.65625 -0.234375 C 5.15625 -0.015625 4.539062 0.09375 3.8125 0.09375 Z M 3.8125 0.09375 "/></g></g></g><g fill="#00a6fb" fill-opacity="1"><g transform="translate(165.281448, 333.483141)"><g><path d="M 3.015625 -7.5625 L 0.046875 -7.5625 L 0.046875 -8.625 L 7.1875 -8.625 L 7.1875 -7.5625 L 4.234375 -7.5625 L 4.234375 0 L 3.015625 0 Z M 3.015625 -7.5625 "/></g></g></g><g fill="#00a6fb" fill-opacity="1"><g transform="translate(182.383395, 333.483141)"><g><path d="M 6.796875 -2.15625 L 2.203125 -2.15625 L 1.25 0 L -0.015625 0 L 3.890625 -8.625 L 5.109375 -8.625 L 9.03125 0 L 7.734375 0 Z M 6.359375 -3.140625 L 4.5 -7.375 L 2.640625 -3.140625 Z M 6.359375 -3.140625 "/></g></g></g><g fill="#00a6fb" fill-opacity="1"><g transform="translate(201.27292, 333.483141)"><g><path d="M 5.15625 0.09375 C 4.289062 0.09375 3.507812 -0.09375 2.8125 -0.46875 C 2.125 -0.851562 1.582031 -1.378906 1.1875 -2.046875 C 0.789062 -2.722656 0.59375 -3.476562 0.59375 -4.3125 C 0.59375 -5.15625 0.789062 -5.910156 1.1875 -6.578125 C 1.582031 -7.242188 2.128906 -7.769531 2.828125 -8.15625 C 3.523438 -8.539062 4.304688 -8.734375 5.171875 -8.734375 C 5.835938 -8.734375 6.453125 -8.617188 7.015625 -8.390625 C 7.578125 -8.160156 8.050781 -7.828125 8.4375 -7.390625 L 7.640625 -6.609375 C 6.992188 -7.285156 6.1875 -7.625 5.21875 -7.625 C 4.570312 -7.625 3.988281 -7.476562 3.46875 -7.1875 C 2.957031 -6.90625 2.554688 -6.507812 2.265625 -6 C 1.972656 -5.5 1.828125 -4.9375 1.828125 -4.3125 C 1.828125 -3.6875 1.972656 -3.117188 2.265625 -2.609375 C 2.554688 -2.109375 2.957031 -1.710938 3.46875 -1.421875 C 3.988281 -1.140625 4.570312 -1 5.21875 -1 C 6.175781 -1 6.984375 -1.34375 7.640625 -2.03125 L 8.4375 -1.25 C 8.050781 -0.8125 7.578125 -0.476562 7.015625 -0.25 C 6.453125 -0.0195312 5.832031 0.09375 5.15625 0.09375 Z M 5.15625 0.09375 "/></g></g></g><g fill="#00a6fb" fill-opacity="1"><g transform="translate(220.051494, 333.483141)"><g><path d="M 4.109375 -3.828125 L 2.53125 -2.234375 L 2.53125 0 L 1.296875 0 L 1.296875 -8.625 L 2.53125 -8.625 L 2.53125 -3.8125 L 7.21875 -8.625 L 8.625 -8.625 L 4.9375 -4.75 L 8.859375 0 L 7.40625 0 Z M 4.109375 -3.828125 "/></g></g></g><g fill="#00a6fb" fill-opacity="1"><g transform="translate(238.780756, 333.483141)"><g/></g></g><g fill="#00a6fb" fill-opacity="1"><g transform="translate(251.962347, 333.483141)"><g><path d="M 1.296875 -8.625 L 4.9375 -8.625 C 5.84375 -8.625 6.648438 -8.441406 7.359375 -8.078125 C 8.066406 -7.722656 8.613281 -7.21875 9 -6.5625 C 9.394531 -5.90625 9.59375 -5.15625 9.59375 -4.3125 C 9.59375 -3.46875 9.394531 -2.71875 9 -2.0625 C 8.613281 -1.40625 8.066406 -0.894531 7.359375 -0.53125 C 6.648438 -0.175781 5.84375 0 4.9375 0 L 1.296875 0 Z M 4.859375 -1.078125 C 5.554688 -1.078125 6.171875 -1.210938 6.703125 -1.484375 C 7.234375 -1.753906 7.640625 -2.132812 7.921875 -2.625 C 8.210938 -3.113281 8.359375 -3.675781 8.359375 -4.3125 C 8.359375 -4.957031 8.210938 -5.523438 7.921875 -6.015625 C 7.640625 -6.503906 7.234375 -6.882812 6.703125 -7.15625 C 6.171875 -7.425781 5.554688 -7.5625 4.859375 -7.5625 L 2.53125 -7.5625 L 2.53125 -1.078125 Z M 4.859375 -1.078125 "/></g></g></g><g fill="#00a6fb" fill-opacity="1"><g transform="translate(272.010723, 333.483141)"><g><path d="M 7.5625 -1.078125 L 7.5625 0 L 1.296875 0 L 1.296875 -8.625 L 7.390625 -8.625 L 7.390625 -7.5625 L 2.53125 -7.5625 L 2.53125 -4.90625 L 6.859375 -4.90625 L 6.859375 -3.859375 L 2.53125 -3.859375 L 2.53125 -1.078125 Z M 7.5625 -1.078125 "/></g></g></g><g fill="#00a6fb" fill-opacity="1"><g transform="translate(290.135898, 333.483141)"><g><path d="M 8.796875 -8.625 L 5 0 L 3.78125 0 L -0.015625 -8.625 L 1.3125 -8.625 L 4.421875 -1.546875 L 7.5625 -8.625 Z M 8.796875 -8.625 "/></g></g></g><g fill="#d72638" fill-opacity="1"><g transform="translate(93.095284, 88.881525)"><g><path d="M 3.375 0 L 16.597656 0 C 22.308594 0 26.164062 -3.136719 26.164062 -7.878906 C 26.164062 -10.890625 24.597656 -13.304688 21.945312 -14.46875 C 24.074219 -15.714844 25.320312 -17.925781 25.320312 -20.578125 C 25.320312 -25.199219 21.664062 -28.132812 15.957031 -28.132812 L 3.375 -28.132812 Z M 9.6875 -5.0625 L 9.6875 -11.816406 L 15.636719 -11.816406 C 18.167969 -11.816406 19.613281 -10.570312 19.613281 -8.441406 C 19.613281 -6.308594 18.167969 -5.0625 15.636719 -5.0625 Z M 9.6875 -16.679688 L 9.6875 -23.070312 L 14.992188 -23.070312 C 17.445312 -23.070312 18.808594 -21.945312 18.808594 -19.894531 C 18.808594 -17.84375 17.445312 -16.679688 14.992188 -16.679688 Z M 9.6875 -16.679688 "/></g></g></g><g fill="#d72638" fill-opacity="1"><g transform="translate(132.839539, 88.881525)"><g><path d="M 3.375 0 L 9.765625 0 L 9.765625 -8.761719 L 13.988281 -8.761719 L 19.011719 0 L 26.40625 0 L 20.578125 -9.765625 C 23.953125 -11.253906 25.925781 -14.308594 25.925781 -18.449219 C 25.925781 -24.4375 21.824219 -28.132812 15.394531 -28.132812 L 3.375 -28.132812 Z M 9.6875 -14.148438 L 9.6875 -22.667969 L 14.550781 -22.667969 C 17.683594 -22.667969 19.453125 -21.140625 19.453125 -18.40625 C 19.453125 -15.675781 17.683594 -14.148438 14.550781 -14.148438 Z M 9.6875 -14.148438 "/></g></g></g><g fill="#d72638" fill-opacity="1"><g transform="translate(173.186543, 88.881525)"><g><path d="M 10.730469 0 L 17.121094 0 L 17.121094 -9.925781 L 27.453125 -28.132812 L 20.175781 -28.132812 L 16.71875 -21.625 L 13.945312 -16.519531 L 11.132812 -21.625 L 7.636719 -28.132812 L 0.363281 -28.132812 L 10.730469 -9.847656 Z M 10.730469 0 "/></g></g></g><g fill="#d72638" fill-opacity="1"><g transform="translate(213.051342, 88.881525)"><g><path d="M 16.277344 0.5625 C 23.671875 0.5625 29.421875 -3.9375 30.828125 -10.773438 L 24.234375 -10.773438 C 23.070312 -7.554688 20.097656 -5.507812 16.398438 -5.507812 C 11.617188 -5.507812 8.238281 -9.003906 8.238281 -14.066406 C 8.238281 -19.132812 11.65625 -22.628906 16.4375 -22.628906 C 20.015625 -22.628906 22.949219 -20.699219 24.035156 -17.605469 L 30.625 -17.605469 C 29.019531 -24.355469 23.390625 -28.699219 16.238281 -28.699219 C 7.71875 -28.699219 1.726562 -22.667969 1.726562 -14.066406 C 1.726562 -5.464844 7.71875 0.5625 16.277344 0.5625 Z M 16.277344 0.5625 "/></g></g></g><g fill="#d72638" fill-opacity="1"><g transform="translate(257.537259, 88.881525)"><g><path d="M 3.375 0 L 22.308594 0 L 22.308594 -5.425781 L 9.726562 -5.425781 L 9.726562 -11.574219 L 20.78125 -11.574219 L 20.78125 -16.921875 L 9.726562 -16.921875 L 9.726562 -22.75 L 21.863281 -22.75 L 21.863281 -28.132812 L 3.375 -28.132812 Z M 3.375 0 "/></g></g></g></svg>