<svg xmlns="http://www.w3.org/2000/svg" xmlns:xlink="http://www.w3.org/1999/xlink" width="500" zoomAndPan="magnify" viewBox="0 0 375 374.999991" height="500" preserveAspectRatio="xMidYMid meet" version="1.0"><defs><g/><clipPath id="59a80c6ad9"><path d="M 122.324219 67.683594 L 251 67.683594 L 251 215 L 122.324219 215 Z M 122.324219 67.683594 " clip-rule="nonzero"/></clipPath></defs><g clip-path="url(#59a80c6ad9)"><path fill="#003554" d="M 182.136719 100.898438 C 183.265625 102.820312 184.953125 117.949219 185.386719 121.707031 L 172.171875 121.597656 C 172.734375 119.421875 173.824219 118.242188 174.039062 115.828125 C 172.171875 116.316406 165.507812 118.585938 164.164062 117.839844 Z M 173.878906 115.738281 Z M 173.878906 115.738281 Z M 122.390625 104.472656 L 122.351562 168.632812 C 126.835938 165.207031 131.628906 161.757812 136.097656 158.257812 C 138.511719 156.371094 140.671875 154.539062 143.085938 152.707031 C 145.375 150.984375 147.953125 148.660156 150.203125 147.410156 L 142.125 166.277344 C 148.1875 162.464844 170.027344 148.152344 175.675781 146.558594 L 173.878906 153.558594 C 176.566406 153.269531 184.445312 149.875 190.816406 147.390625 C 200.183594 143.765625 200.800781 143.4375 210.277344 146.25 L 230.558594 152.289062 C 234.824219 153.648438 237.277344 156.660156 233.265625 160 C 230.539062 162.285156 226.4375 165.351562 224.675781 165.332031 C 216.214844 165.242188 177.835938 164.261719 173.441406 166.222656 C 173.714844 166.402344 173.53125 166.347656 174.402344 166.746094 C 174.914062 166.964844 175.203125 167.054688 175.746094 167.253906 C 177.835938 167.960938 181.703125 168.851562 182.808594 169.792969 C 180.886719 172.824219 163.164062 199 162.292969 201.230469 C 165.417969 202.410156 179.996094 211.335938 184.296875 213.765625 C 187.277344 215.433594 190.273438 212.332031 195.410156 209.449219 L 241.035156 183.144531 C 252.800781 176.359375 249.984375 180.042969 249.984375 164.660156 C 248.042969 167.453125 245.699219 170.265625 242.160156 172.949219 L 212.09375 190.347656 C 205.269531 194.285156 198.714844 198.074219 191.941406 201.957031 C 183.953125 206.546875 188.328125 206.183594 174.113281 198.402344 C 173.695312 198.164062 173.332031 197.984375 172.96875 197.75 L 172.296875 197.203125 C 174.441406 193.667969 183.898438 182.890625 189.816406 177.175781 C 192.359375 174.710938 192.996094 173.53125 196.371094 173.296875 C 202.890625 172.859375 219.9375 173.058594 224.710938 172.949219 C 233.28125 172.769531 246.625 160.253906 249.949219 151.726562 C 244.9375 150.148438 237.3125 145.648438 232.011719 143.238281 C 221.71875 138.539062 222.679688 140.5 218.394531 129.996094 C 216.507812 125.351562 212.546875 123.972656 207.121094 121.125 C 205.339844 120.183594 204.105469 119.835938 203.398438 118.132812 C 201.617188 113.777344 200.820312 99.339844 200.601562 93.988281 C 192.90625 96.546875 192.289062 98.179688 191.199219 105.667969 C 189.164062 99.355469 187.222656 93.191406 185.535156 86.769531 C 183.210938 88.039062 180.175781 90.886719 178.054688 92.628906 L 130.757812 131.101562 C 130.140625 127.527344 130.523438 114.378906 130.523438 109.84375 C 130.523438 108.390625 132.320312 108.011719 133.5 107.320312 L 157.9375 93.261719 C 161.332031 91.339844 184.789062 77.40625 185.824219 77.300781 C 187.347656 77.117188 221.84375 97.523438 227.761719 100.953125 L 241.816406 108.828125 L 241.816406 140.734375 L 249.914062 144.671875 L 249.984375 104.472656 C 248.460938 103.09375 244.210938 100.933594 242.289062 99.847656 C 239.726562 98.414062 236.949219 96.816406 234.351562 95.257812 C 229.015625 92.066406 223.714844 89.054688 218.195312 85.898438 C 214.855469 83.992188 186.894531 67.683594 186.167969 67.683594 L 138.257812 95.09375 C 135.496094 96.746094 123.785156 103.183594 122.390625 104.472656 Z M 122.390625 104.472656 " fill-opacity="1" fill-rule="evenodd"/></g><g fill="#d72638" fill-opacity="1"><g transform="translate(81.165597, 258.796418)"><g><path d="M 16.277344 0.5625 C 23.671875 0.5625 29.421875 -3.9375 30.828125 -10.773438 L 24.234375 -10.773438 C 23.070312 -7.554688 20.097656 -5.507812 16.398438 -5.507812 C 11.617188 -5.507812 8.238281 -9.003906 8.238281 -14.066406 C 8.238281 -19.132812 11.65625 -22.628906 16.4375 -22.628906 C 20.015625 -22.628906 22.949219 -20.699219 24.035156 -17.605469 L 30.625 -17.605469 C 29.019531 -24.355469 23.390625 -28.699219 16.238281 -28.699219 C 7.71875 -28.699219 1.726562 -22.667969 1.726562 -14.066406 C 1.726562 -5.464844 7.71875 0.5625 16.277344 0.5625 Z M 16.277344 0.5625 "/></g></g></g><g fill="#d72638" fill-opacity="1"><g transform="translate(125.651517, 258.796418)"><g><path d="M 0.363281 0 L 7.195312 0 L 9.082031 -4.863281 L 20.257812 -4.863281 L 22.144531 0 L 28.980469 0 L 17.804688 -28.132812 L 11.535156 -28.132812 Z M 10.730469 -9.886719 L 14.671875 -20.175781 L 18.648438 -9.886719 Z M 10.730469 -9.886719 "/></g></g></g><g fill="#d72638" fill-opacity="1"><g transform="translate(167.043298, 258.796418)"><g><path d="M 1.6875 0 L 23.152344 0 L 23.152344 -5.789062 L 10.007812 -5.789062 L 22.828125 -23.511719 L 22.828125 -28.132812 L 2.128906 -28.132812 L 2.128906 -22.347656 L 14.550781 -22.347656 L 1.6875 -4.621094 Z M 1.6875 0 "/></g></g></g><g fill="#d72638" fill-opacity="1"><g transform="translate(203.93451, 258.796418)"><g><path d="M 3.375 0 L 9.765625 0 L 9.765625 -28.132812 L 3.375 -28.132812 Z M 3.375 0 "/></g></g></g><g fill="#d72638" fill-opacity="1"><g transform="translate(229.132293, 258.796418)"><g><path d="M 3.375 0 L 22.308594 0 L 22.308594 -5.425781 L 9.726562 -5.425781 L 9.726562 -11.574219 L 20.78125 -11.574219 L 20.78125 -16.921875 L 9.726562 -16.921875 L 9.726562 -22.75 L 21.863281 -22.75 L 21.863281 -28.132812 L 3.375 -28.132812 Z M 3.375 0 "/></g></g></g><g fill="#d72638" fill-opacity="1"><g transform="translate(265.541302, 258.796418)"><g><path d="M 3.375 0 L 9.765625 0 L 9.765625 -8.761719 L 13.988281 -8.761719 L 19.011719 0 L 26.40625 0 L 20.578125 -9.765625 C 23.953125 -11.253906 25.925781 -14.308594 25.925781 -18.449219 C 25.925781 -24.4375 21.824219 -28.132812 15.394531 -28.132812 L 3.375 -28.132812 Z M 9.6875 -14.148438 L 9.6875 -22.667969 L 14.550781 -22.667969 C 17.683594 -22.667969 19.453125 -21.140625 19.453125 -18.40625 C 19.453125 -15.675781 17.683594 -14.148438 14.550781 -14.148438 Z M 9.6875 -14.148438 "/></g></g></g><g fill="#00a6fb" fill-opacity="1"><g transform="translate(81.370157, 303.900594)"><g><path d="M 3.8125 0.09375 C 3.15625 0.09375 2.523438 -0.00390625 1.921875 -0.203125 C 1.316406 -0.398438 0.84375 -0.660156 0.5 -0.984375 L 0.96875 -1.953125 C 1.289062 -1.648438 1.707031 -1.40625 2.21875 -1.21875 C 2.738281 -1.039062 3.269531 -0.953125 3.8125 -0.953125 C 4.519531 -0.953125 5.050781 -1.070312 5.40625 -1.3125 C 5.757812 -1.550781 5.9375 -1.875 5.9375 -2.28125 C 5.9375 -2.570312 5.835938 -2.8125 5.640625 -3 C 5.453125 -3.1875 5.21875 -3.328125 4.9375 -3.421875 C 4.65625 -3.523438 4.253906 -3.640625 3.734375 -3.765625 C 3.085938 -3.921875 2.5625 -4.078125 2.15625 -4.234375 C 1.757812 -4.390625 1.421875 -4.628906 1.140625 -4.953125 C 0.859375 -5.273438 0.71875 -5.710938 0.71875 -6.265625 C 0.71875 -6.722656 0.835938 -7.132812 1.078125 -7.5 C 1.316406 -7.875 1.679688 -8.171875 2.171875 -8.390625 C 2.671875 -8.617188 3.285156 -8.734375 4.015625 -8.734375 C 4.523438 -8.734375 5.023438 -8.664062 5.515625 -8.53125 C 6.015625 -8.394531 6.441406 -8.207031 6.796875 -7.96875 L 6.390625 -6.984375 C 6.023438 -7.210938 5.632812 -7.382812 5.21875 -7.5 C 4.8125 -7.625 4.410156 -7.6875 4.015625 -7.6875 C 3.316406 -7.6875 2.789062 -7.554688 2.4375 -7.296875 C 2.09375 -7.046875 1.921875 -6.71875 1.921875 -6.3125 C 1.921875 -6.019531 2.019531 -5.78125 2.21875 -5.59375 C 2.414062 -5.40625 2.660156 -5.257812 2.953125 -5.15625 C 3.242188 -5.050781 3.640625 -4.941406 4.140625 -4.828125 C 4.785156 -4.671875 5.304688 -4.515625 5.703125 -4.359375 C 6.097656 -4.203125 6.4375 -3.960938 6.71875 -3.640625 C 7.007812 -3.328125 7.15625 -2.898438 7.15625 -2.359375 C 7.15625 -1.898438 7.03125 -1.484375 6.78125 -1.109375 C 6.53125 -0.742188 6.15625 -0.453125 5.65625 -0.234375 C 5.15625 -0.015625 4.539062 0.09375 3.8125 0.09375 Z M 3.8125 0.09375 "/></g></g></g><g fill="#00a6fb" fill-opacity="1"><g transform="translate(98.891252, 303.900594)"><g><path d="M 5.1875 0.09375 C 4.320312 0.09375 3.535156 -0.09375 2.828125 -0.46875 C 2.128906 -0.851562 1.582031 -1.378906 1.1875 -2.046875 C 0.789062 -2.722656 0.59375 -3.476562 0.59375 -4.3125 C 0.59375 -5.144531 0.789062 -5.894531 1.1875 -6.5625 C 1.582031 -7.238281 2.128906 -7.769531 2.828125 -8.15625 C 3.535156 -8.539062 4.320312 -8.734375 5.1875 -8.734375 C 6.050781 -8.734375 6.832031 -8.539062 7.53125 -8.15625 C 8.226562 -7.769531 8.773438 -7.242188 9.171875 -6.578125 C 9.566406 -5.910156 9.765625 -5.15625 9.765625 -4.3125 C 9.765625 -3.476562 9.566406 -2.722656 9.171875 -2.046875 C 8.773438 -1.378906 8.226562 -0.851562 7.53125 -0.46875 C 6.832031 -0.09375 6.050781 0.09375 5.1875 0.09375 Z M 5.1875 -1 C 5.820312 -1 6.390625 -1.140625 6.890625 -1.421875 C 7.398438 -1.710938 7.800781 -2.109375 8.09375 -2.609375 C 8.382812 -3.117188 8.53125 -3.6875 8.53125 -4.3125 C 8.53125 -4.9375 8.382812 -5.5 8.09375 -6 C 7.800781 -6.507812 7.398438 -6.90625 6.890625 -7.1875 C 6.390625 -7.476562 5.820312 -7.625 5.1875 -7.625 C 4.550781 -7.625 3.976562 -7.476562 3.46875 -7.1875 C 2.957031 -6.90625 2.554688 -6.507812 2.265625 -6 C 1.972656 -5.5 1.828125 -4.9375 1.828125 -4.3125 C 1.828125 -3.6875 1.972656 -3.117188 2.265625 -2.609375 C 2.554688 -2.109375 2.957031 -1.710938 3.46875 -1.421875 C 3.976562 -1.140625 4.550781 -1 5.1875 -1 Z M 5.1875 -1 "/></g></g></g><g fill="#00a6fb" fill-opacity="1"><g transform="translate(119.112214, 303.900594)"><g><path d="M 2.53125 -7.5625 L 2.53125 -4.546875 L 6.859375 -4.546875 L 6.859375 -3.484375 L 2.53125 -3.484375 L 2.53125 0 L 1.296875 0 L 1.296875 -8.625 L 7.390625 -8.625 L 7.390625 -7.5625 Z M 2.53125 -7.5625 "/></g></g></g><g fill="#00a6fb" fill-opacity="1"><g transform="translate(136.805907, 303.900594)"><g><path d="M 3.015625 -7.5625 L 0.046875 -7.5625 L 0.046875 -8.625 L 7.1875 -8.625 L 7.1875 -7.5625 L 4.234375 -7.5625 L 4.234375 0 L 3.015625 0 Z M 3.015625 -7.5625 "/></g></g></g><g fill="#00a6fb" fill-opacity="1"><g transform="translate(153.907853, 303.900594)"><g><path d="M 13.484375 -8.625 L 10.609375 0 L 9.3125 0 L 6.953125 -6.890625 L 4.59375 0 L 3.28125 0 L 0.390625 -8.625 L 1.671875 -8.625 L 4 -1.609375 L 6.421875 -8.625 L 7.5625 -8.625 L 9.9375 -1.578125 L 12.3125 -8.625 Z M 13.484375 -8.625 "/></g></g></g><g fill="#00a6fb" fill-opacity="1"><g transform="translate(177.654674, 303.900594)"><g><path d="M 6.796875 -2.15625 L 2.203125 -2.15625 L 1.25 0 L -0.015625 0 L 3.890625 -8.625 L 5.109375 -8.625 L 9.03125 0 L 7.734375 0 Z M 6.359375 -3.140625 L 4.5 -7.375 L 2.640625 -3.140625 Z M 6.359375 -3.140625 "/></g></g></g><g fill="#00a6fb" fill-opacity="1"><g transform="translate(196.544199, 303.900594)"><g><path d="M 7.0625 0 L 5.203125 -2.65625 C 4.972656 -2.632812 4.789062 -2.625 4.65625 -2.625 L 2.53125 -2.625 L 2.53125 0 L 1.296875 0 L 1.296875 -8.625 L 4.65625 -8.625 C 5.78125 -8.625 6.660156 -8.359375 7.296875 -7.828125 C 7.941406 -7.296875 8.265625 -6.5625 8.265625 -5.625 C 8.265625 -4.957031 8.097656 -4.390625 7.765625 -3.921875 C 7.441406 -3.453125 6.972656 -3.109375 6.359375 -2.890625 L 8.40625 0 Z M 4.625 -3.671875 C 5.40625 -3.671875 6 -3.835938 6.40625 -4.171875 C 6.820312 -4.515625 7.03125 -5 7.03125 -5.625 C 7.03125 -6.25 6.820312 -6.726562 6.40625 -7.0625 C 6 -7.394531 5.40625 -7.5625 4.625 -7.5625 L 2.53125 -7.5625 L 2.53125 -3.671875 Z M 4.625 -3.671875 "/></g></g></g><g fill="#00a6fb" fill-opacity="1"><g transform="translate(215.372086, 303.900594)"><g><path d="M 7.5625 -1.078125 L 7.5625 0 L 1.296875 0 L 1.296875 -8.625 L 7.390625 -8.625 L 7.390625 -7.5625 L 2.53125 -7.5625 L 2.53125 -4.90625 L 6.859375 -4.90625 L 6.859375 -3.859375 L 2.53125 -3.859375 L 2.53125 -1.078125 Z M 7.5625 -1.078125 "/></g></g></g><g fill="#00a6fb" fill-opacity="1"><g transform="translate(233.497272, 303.900594)"><g/></g></g><g fill="#00a6fb" fill-opacity="1"><g transform="translate(246.678862, 303.900594)"><g><path d="M 1.296875 -8.625 L 4.9375 -8.625 C 5.84375 -8.625 6.648438 -8.441406 7.359375 -8.078125 C 8.066406 -7.722656 8.613281 -7.21875 9 -6.5625 C 9.394531 -5.90625 9.59375 -5.15625 9.59375 -4.3125 C 9.59375 -3.46875 9.394531 -2.71875 9 -2.0625 C 8.613281 -1.40625 8.066406 -0.894531 7.359375 -0.53125 C 6.648438 -0.175781 5.84375 0 4.9375 0 L 1.296875 0 Z M 4.859375 -1.078125 C 5.554688 -1.078125 6.171875 -1.210938 6.703125 -1.484375 C 7.234375 -1.753906 7.640625 -2.132812 7.921875 -2.625 C 8.210938 -3.113281 8.359375 -3.675781 8.359375 -4.3125 C 8.359375 -4.957031 8.210938 -5.523438 7.921875 -6.015625 C 7.640625 -6.503906 7.234375 -6.882812 6.703125 -7.15625 C 6.171875 -7.425781 5.554688 -7.5625 4.859375 -7.5625 L 2.53125 -7.5625 L 2.53125 -1.078125 Z M 4.859375 -1.078125 "/></g></g></g><g fill="#00a6fb" fill-opacity="1"><g transform="translate(266.727239, 303.900594)"><g><path d="M 7.5625 -1.078125 L 7.5625 0 L 1.296875 0 L 1.296875 -8.625 L 7.390625 -8.625 L 7.390625 -7.5625 L 2.53125 -7.5625 L 2.53125 -4.90625 L 6.859375 -4.90625 L 6.859375 -3.859375 L 2.53125 -3.859375 L 2.53125 -1.078125 Z M 7.5625 -1.078125 "/></g></g></g><g fill="#00a6fb" fill-opacity="1"><g transform="translate(284.852414, 303.900594)"><g><path d="M 8.796875 -8.625 L 5 0 L 3.78125 0 L -0.015625 -8.625 L 1.3125 -8.625 L 4.421875 -1.546875 L 7.5625 -8.625 Z M 8.796875 -8.625 "/></g></g></g></svg>