<svg xmlns="http://www.w3.org/2000/svg" xmlns:xlink="http://www.w3.org/1999/xlink" width="500" zoomAndPan="magnify" viewBox="0 0 375 374.999991" height="500" preserveAspectRatio="xMidYMid meet" version="1.0"><defs><g/><clipPath id="90c6d9ba99"><path d="M 110.527344 38.210938 L 264.191406 38.210938 L 264.191406 263.261719 L 110.527344 263.261719 Z M 110.527344 38.210938 " clip-rule="nonzero"/></clipPath></defs><g clip-path="url(#90c6d9ba99)"><path fill="#6f00ff" d="M 257.292969 124.261719 L 250.5625 101.929688 L 262.890625 120.648438 Z M 259.859375 152.699219 L 254.976562 151.898438 L 225.660156 116.433594 L 256.492188 125.53125 Z M 243.210938 197.566406 L 238.292969 186.714844 L 232.828125 150.707031 L 254.015625 152.871094 Z M 222.570312 223.09375 L 211.589844 222.257812 L 235.746094 190.429688 Z M 201.941406 261.015625 L 192.089844 239.941406 L 200.820312 198.011719 L 209.992188 222.753906 Z M 160.804688 193.523438 L 166.425781 215.105469 L 159.671875 221.417969 Z M 157.546875 129.734375 L 180.28125 129.734375 L 188.59375 145.890625 L 186.183594 157.492188 L 171.007812 144.304688 Z M 119.589844 129.019531 L 118.886719 126.15625 L 135.289062 123.980469 L 153.78125 129.054688 L 126.535156 133.574219 Z M 112.453125 115.355469 L 117.019531 112.796875 L 121.546875 115.640625 L 117.972656 124.839844 L 111.660156 120.207031 Z M 166.503906 54.628906 L 177.453125 57.121094 L 177.453125 62.683594 L 168.800781 63.363281 Z M 170.847656 41.871094 L 175.871094 49.835938 C 175.882812 49.847656 175.890625 49.859375 175.902344 49.878906 L 178.855469 53.609375 L 177.691406 56.054688 L 166.480469 53.503906 Z M 193.265625 39.613281 L 197.96875 54.535156 L 183.945312 46.210938 Z M 226.632812 82.070312 L 202.132812 66.839844 L 231.6875 78.851562 Z M 248.019531 98.519531 L 224.277344 114.644531 L 214.9375 98.519531 L 226.746094 83.460938 Z M 248.675781 99.394531 L 256.175781 124.308594 L 225.363281 115.222656 Z M 232.386719 149.574219 L 214.96875 136.351562 L 224.234375 116.421875 L 253.425781 151.726562 Z M 215.707031 138.277344 L 231.6875 150.402344 L 236.664062 183.214844 Z M 204.542969 174.023438 L 209.519531 218.359375 L 201.226562 195.992188 Z M 200.449219 193.910156 L 187.597656 159.828125 L 204.023438 170.125 Z M 169.21875 190.847656 L 179.488281 240.023438 L 167.589844 215.175781 Z M 168.40625 186.839844 L 166.71875 211.914062 L 160.972656 189.898438 L 169.625 168.652344 Z M 199.9375 196.402344 L 181.105469 242.457031 L 169.660156 187.632812 Z M 198.828125 194.949219 L 169.511719 186.464844 L 170.847656 166.582031 Z M 186.058594 158.832031 L 199.261719 193.839844 L 171.121094 165.3125 L 180.609375 154.082031 Z M 214.40625 138.0625 L 236.605469 185.660156 L 205.265625 169.582031 Z M 189.632812 146.21875 L 213.464844 137.40625 L 204.292969 169.015625 L 187.136719 158.253906 Z M 212.355469 136.65625 L 189.429688 145.132812 L 181.617188 129.960938 Z M 203.207031 113.171875 L 213.351562 135.761719 L 181.898438 128.90625 Z M 158.339844 115.957031 L 182.542969 115.957031 L 156.257812 128.613281 L 137.152344 123.367188 Z M 122.675781 115.730469 L 141.035156 99.324219 L 155 95.765625 C 155.011719 95.765625 155.011719 95.753906 155.023438 95.753906 C 155.023438 95.753906 155.035156 95.753906 155.035156 95.753906 L 162.828125 93.183594 L 157.785156 115.003906 L 135.207031 122.902344 L 119.058594 125.03125 Z M 122.15625 114.734375 L 118.097656 112.183594 L 136.703125 101.738281 Z M 159.84375 80.039062 L 146.984375 83.382812 L 165.179688 66.128906 Z M 192.574219 74.828125 L 185.359375 81.503906 L 178.707031 67.476562 L 198.003906 56.847656 Z M 209.019531 82.035156 L 193.707031 74.828125 L 196.75 64.769531 L 224.707031 82.160156 Z M 185.449219 115.582031 C 185.460938 115.5625 185.460938 115.539062 185.460938 115.515625 C 185.460938 115.503906 185.472656 115.492188 185.472656 115.46875 C 185.472656 115.425781 185.472656 115.367188 185.460938 115.3125 L 182.566406 100.242188 L 202.449219 112.378906 L 181.625 127.761719 Z M 181.320312 99.550781 L 184.273438 114.871094 L 158.925781 114.871094 L 163.960938 93.09375 Z M 181.738281 98.542969 L 164.988281 92.3125 L 185.300781 82.941406 L 206.984375 83.113281 Z M 193.152344 75.769531 L 206.417969 82.011719 L 186.570312 81.863281 Z M 154.449219 88.335938 L 146.644531 84.59375 L 160.296875 81.039062 L 183.0625 82.78125 L 163.550781 91.777344 Z M 155.105469 94.589844 L 153.519531 91.996094 L 154.527344 89.535156 L 161.945312 92.335938 Z M 213.851562 98.148438 L 203.296875 111.617188 L 182.835938 99.144531 L 209.042969 83.121094 L 225.535156 83.246094 Z M 214.292969 135.21875 L 204.054688 112.410156 L 214.222656 99.4375 L 223.5 115.4375 Z M 183.1875 47.023438 L 197.8125 55.714844 L 178.539062 66.332031 L 178.539062 56.804688 Z M 177.453125 63.78125 L 177.453125 67.25 C 177.453125 67.25 177.453125 67.261719 177.453125 67.273438 C 177.453125 67.292969 177.453125 67.316406 177.464844 67.339844 C 177.464844 67.351562 177.464844 67.375 177.476562 67.386719 C 177.476562 67.40625 177.488281 67.429688 177.5 67.453125 C 177.5 67.453125 177.5 67.464844 177.507812 67.476562 L 184.296875 81.785156 L 161.019531 80.007812 L 166.933594 64.597656 Z M 145.410156 85.207031 L 153.53125 89.105469 L 152.410156 91.835938 C 152.355469 91.996094 152.367188 92.175781 152.457031 92.324219 L 154.019531 94.894531 L 141.566406 98.066406 Z M 158.6875 128.648438 L 184.035156 116.445312 L 180.214844 128.648438 Z M 171.164062 145.867188 L 179.78125 153.371094 L 170.949219 163.828125 Z M 191.046875 239.613281 L 181.933594 243.320312 L 198.933594 201.738281 Z M 205.265625 170.804688 L 236.945312 187.054688 L 210.945312 221.304688 Z M 264.101562 120.511719 L 249.433594 98.226562 C 249.421875 98.226562 249.421875 98.214844 249.410156 98.214844 C 249.386719 98.167969 249.34375 98.136719 249.308594 98.101562 C 249.296875 98.101562 249.296875 98.089844 249.285156 98.089844 L 227.613281 82.738281 L 233.15625 79.203125 C 233.328125 79.089844 233.429688 78.898438 233.40625 78.691406 C 233.394531 78.488281 233.257812 78.320312 233.066406 78.238281 L 197.089844 63.625 L 199.429688 55.886719 C 199.441406 55.839844 199.453125 55.792969 199.453125 55.738281 C 199.453125 55.714844 199.453125 55.703125 199.453125 55.691406 C 199.441406 55.660156 199.441406 55.613281 199.429688 55.578125 C 199.429688 55.578125 199.429688 55.566406 199.429688 55.566406 L 194.078125 38.585938 C 194.023438 38.414062 193.898438 38.289062 193.730469 38.234375 C 193.570312 38.175781 193.390625 38.199219 193.242188 38.300781 L 182.644531 45.8125 C 182.632812 45.8125 182.632812 45.8125 182.632812 45.8125 C 182.597656 45.835938 182.578125 45.871094 182.542969 45.890625 C 182.53125 45.902344 182.53125 45.914062 182.519531 45.925781 C 182.507812 45.9375 182.496094 45.960938 182.488281 45.972656 C 182.476562 45.984375 182.476562 45.992188 182.476562 46.003906 C 182.476562 46.003906 182.464844 46.015625 182.464844 46.015625 L 179.375 52.519531 L 176.773438 49.222656 L 171.175781 40.363281 C 171.074219 40.179688 170.871094 40.089844 170.667969 40.113281 C 170.464844 40.136719 170.28125 40.273438 170.214844 40.464844 L 165.25 53.710938 C 165.25 53.722656 165.25 53.722656 165.238281 53.730469 C 165.238281 53.742188 165.226562 53.765625 165.226562 53.777344 C 165.214844 53.8125 165.214844 53.835938 165.214844 53.855469 C 165.214844 53.867188 165.214844 53.867188 165.214844 53.878906 C 165.214844 53.925781 165.214844 53.980469 165.226562 54.027344 C 165.226562 54.027344 165.226562 54.039062 165.226562 54.039062 L 167.703125 63.441406 L 166.503906 63.542969 C 166.503906 63.542969 166.492188 63.542969 166.492188 63.542969 C 166.378906 63.554688 166.265625 63.601562 166.1875 63.679688 C 166.1875 63.679688 166.175781 63.679688 166.175781 63.691406 L 144.699219 84.039062 C 144.699219 84.050781 144.6875 84.0625 144.675781 84.074219 C 144.664062 84.085938 144.652344 84.097656 144.640625 84.109375 C 144.628906 84.140625 144.609375 84.164062 144.597656 84.199219 C 144.585938 84.222656 144.574219 84.234375 144.574219 84.246094 C 144.5625 84.253906 144.5625 84.265625 144.550781 84.277344 L 140.308594 98.453125 L 111.695312 114.542969 C 111.546875 114.621094 111.445312 114.769531 111.421875 114.925781 L 110.539062 120.363281 C 110.507812 120.570312 110.585938 120.773438 110.753906 120.898438 L 117.734375 126.019531 L 118.582031 129.484375 C 118.617188 129.621094 118.695312 129.734375 118.808594 129.8125 L 126.113281 134.605469 C 126.226562 134.675781 126.375 134.707031 126.511719 134.6875 L 156.109375 129.769531 L 170.089844 144.90625 L 169.839844 165.222656 L 159.898438 189.660156 C 159.875 189.714844 159.867188 189.761719 159.867188 189.820312 C 159.867188 189.828125 159.867188 189.828125 159.867188 189.839844 L 158.53125 222.699219 C 158.519531 222.914062 158.644531 223.117188 158.847656 223.207031 C 159.050781 223.300781 159.277344 223.265625 159.445312 223.117188 L 166.867188 216.183594 L 180.449219 244.542969 C 180.449219 244.554688 180.460938 244.554688 180.460938 244.566406 C 180.472656 244.578125 180.472656 244.589844 180.484375 244.589844 C 180.507812 244.632812 180.539062 244.679688 180.574219 244.714844 C 180.574219 244.714844 180.585938 244.714844 180.585938 244.714844 C 180.621094 244.746094 180.664062 244.769531 180.710938 244.792969 C 180.710938 244.792969 180.722656 244.804688 180.734375 244.804688 C 180.777344 244.828125 180.824219 244.835938 180.867188 244.835938 C 180.878906 244.835938 180.878906 244.847656 180.890625 244.847656 C 180.902344 244.847656 180.925781 244.847656 180.9375 244.847656 C 180.980469 244.847656 181.027344 244.835938 181.082031 244.828125 C 181.09375 244.828125 181.105469 244.828125 181.117188 244.816406 C 181.117188 244.816406 181.128906 244.816406 181.140625 244.804688 L 191.242188 240.714844 L 201.644531 262.941406 C 201.738281 263.136719 201.929688 263.261719 202.144531 263.261719 C 202.167969 263.261719 202.1875 263.261719 202.199219 263.261719 C 202.4375 263.226562 202.628906 263.054688 202.675781 262.828125 L 210.988281 223.300781 L 222.886719 224.214844 C 223.125 224.238281 223.339844 224.09375 223.429688 223.875 L 237.804688 188.242188 L 242.871094 199.449219 C 242.976562 199.664062 243.191406 199.789062 243.425781 199.765625 C 243.652344 199.742188 243.84375 199.574219 243.902344 199.347656 L 255.097656 153.019531 L 260.394531 153.890625 C 260.5625 153.914062 260.730469 153.855469 260.855469 153.742188 C 260.980469 153.628906 261.050781 153.449219 261.027344 153.277344 L 257.566406 125.382812 L 263.945312 121.269531 C 264.070312 121.191406 264.160156 121.066406 264.183594 120.921875 C 264.214844 120.785156 264.183594 120.636719 264.101562 120.511719 " fill-opacity="1" fill-rule="nonzero"/></g><g fill="#ff2e00" fill-opacity="1"><g transform="translate(93.899332, 305.159073)"><g><path d="M 2.0625 0 L 2.0625 -19.203125 L 7.546875 -19.203125 C 9.296875 -19.203125 10.609375 -18.773438 11.484375 -17.921875 C 12.367188 -17.066406 12.8125 -15.785156 12.8125 -14.078125 C 12.8125 -13.179688 12.585938 -12.390625 12.140625 -11.703125 C 11.691406 -11.015625 11.085938 -10.484375 10.328125 -10.109375 C 11.203125 -9.847656 11.894531 -9.304688 12.40625 -8.484375 C 12.925781 -7.671875 13.1875 -6.6875 13.1875 -5.53125 C 13.1875 -3.8125 12.710938 -2.457031 11.765625 -1.46875 C 10.816406 -0.488281 9.46875 0 7.71875 0 Z M 4.484375 -8.984375 L 4.484375 -2.0625 L 7.78125 -2.0625 C 8.695312 -2.0625 9.421875 -2.363281 9.953125 -2.96875 C 10.492188 -3.570312 10.765625 -4.421875 10.765625 -5.515625 C 10.765625 -7.828125 9.785156 -8.984375 7.828125 -8.984375 Z M 4.484375 -11.015625 L 7.578125 -11.015625 C 8.410156 -11.015625 9.082031 -11.296875 9.59375 -11.859375 C 10.113281 -12.421875 10.375 -13.164062 10.375 -14.09375 C 10.375 -15.144531 10.140625 -15.910156 9.671875 -16.390625 C 9.210938 -16.867188 8.503906 -17.109375 7.546875 -17.109375 L 4.484375 -17.109375 Z M 4.484375 -11.015625 "/></g></g></g><g fill="#ff2e00" fill-opacity="1"><g transform="translate(111.319004, 305.159073)"><g><path d="M 7.875 -7.765625 L 4.5 -7.765625 L 4.5 0 L 2.0625 0 L 2.0625 -19.203125 L 7.453125 -19.203125 C 9.328125 -19.203125 10.75 -18.707031 11.71875 -17.71875 C 12.6875 -16.738281 13.171875 -15.304688 13.171875 -13.421875 C 13.171875 -12.234375 12.910156 -11.195312 12.390625 -10.3125 C 11.867188 -9.425781 11.128906 -8.757812 10.171875 -8.3125 L 13.875 -0.15625 L 13.875 0 L 11.28125 0 Z M 4.5 -9.828125 L 7.421875 -9.828125 C 8.429688 -9.828125 9.238281 -10.148438 9.84375 -10.796875 C 10.445312 -11.453125 10.75 -12.328125 10.75 -13.421875 C 10.75 -15.878906 9.628906 -17.109375 7.390625 -17.109375 L 4.5 -17.109375 Z M 4.5 -9.828125 "/></g></g></g><g fill="#ff2e00" fill-opacity="1"><g transform="translate(128.34334, 305.159073)"><g><path d="M 7.0625 -9.5625 L 11 -19.203125 L 13.71875 -19.203125 L 8.265625 -7.15625 L 8.265625 0 L 5.859375 0 L 5.859375 -7.15625 L 0.390625 -19.203125 L 3.140625 -19.203125 Z M 7.0625 -9.5625 "/></g></g></g><g fill="#ff2e00" fill-opacity="1"><g transform="translate(145.19636, 305.159073)"><g><path d="M 14.109375 -6.09375 C 14.003906 -4.03125 13.425781 -2.453125 12.375 -1.359375 C 11.320312 -0.273438 9.835938 0.265625 7.921875 0.265625 C 5.992188 0.265625 4.460938 -0.460938 3.328125 -1.921875 C 2.203125 -3.390625 1.640625 -5.378906 1.640625 -7.890625 L 1.640625 -11.359375 C 1.640625 -13.859375 2.21875 -15.832031 3.375 -17.28125 C 4.539062 -18.726562 6.128906 -19.453125 8.140625 -19.453125 C 9.992188 -19.453125 11.425781 -18.894531 12.4375 -17.78125 C 13.457031 -16.675781 14.015625 -15.09375 14.109375 -13.03125 L 11.671875 -13.03125 C 11.566406 -14.59375 11.234375 -15.707031 10.671875 -16.375 C 10.117188 -17.039062 9.273438 -17.375 8.140625 -17.375 C 6.835938 -17.375 5.832031 -16.859375 5.125 -15.828125 C 4.425781 -14.804688 4.078125 -13.3125 4.078125 -11.34375 L 4.078125 -7.8125 C 4.078125 -5.875 4.398438 -4.382812 5.046875 -3.34375 C 5.703125 -2.3125 6.660156 -1.796875 7.921875 -1.796875 C 9.179688 -1.796875 10.085938 -2.109375 10.640625 -2.734375 C 11.191406 -3.359375 11.535156 -4.476562 11.671875 -6.09375 Z M 14.109375 -6.09375 "/></g></g></g><g fill="#ff2e00" fill-opacity="1"><g transform="translate(163.195855, 305.159073)"><g><path d="M 11.265625 -8.875 L 4.484375 -8.875 L 4.484375 -2.0625 L 12.390625 -2.0625 L 12.390625 0 L 2.0625 0 L 2.0625 -19.203125 L 12.265625 -19.203125 L 12.265625 -17.109375 L 4.484375 -17.109375 L 4.484375 -10.9375 L 11.265625 -10.9375 Z M 11.265625 -8.875 "/></g></g></g><g fill="#ff2e00" fill-opacity="1"><g transform="translate(179.297737, 305.159073)"><g/></g></g><g fill="#ff2e00" fill-opacity="1"><g transform="translate(188.178152, 305.159073)"><g><path d="M 14.109375 -6.09375 C 14.003906 -4.03125 13.425781 -2.453125 12.375 -1.359375 C 11.320312 -0.273438 9.835938 0.265625 7.921875 0.265625 C 5.992188 0.265625 4.460938 -0.460938 3.328125 -1.921875 C 2.203125 -3.390625 1.640625 -5.378906 1.640625 -7.890625 L 1.640625 -11.359375 C 1.640625 -13.859375 2.21875 -15.832031 3.375 -17.28125 C 4.539062 -18.726562 6.128906 -19.453125 8.140625 -19.453125 C 9.992188 -19.453125 11.425781 -18.894531 12.4375 -17.78125 C 13.457031 -16.675781 14.015625 -15.09375 14.109375 -13.03125 L 11.671875 -13.03125 C 11.566406 -14.59375 11.234375 -15.707031 10.671875 -16.375 C 10.117188 -17.039062 9.273438 -17.375 8.140625 -17.375 C 6.835938 -17.375 5.832031 -16.859375 5.125 -15.828125 C 4.425781 -14.804688 4.078125 -13.3125 4.078125 -11.34375 L 4.078125 -7.8125 C 4.078125 -5.875 4.398438 -4.382812 5.046875 -3.34375 C 5.703125 -2.3125 6.660156 -1.796875 7.921875 -1.796875 C 9.179688 -1.796875 10.085938 -2.109375 10.640625 -2.734375 C 11.191406 -3.359375 11.535156 -4.476562 11.671875 -6.09375 Z M 14.109375 -6.09375 "/></g></g></g><g fill="#ff2e00" fill-opacity="1"><g transform="translate(206.177652, 305.159073)"><g><path d="M 11.015625 -5.015625 L 4.53125 -5.015625 L 3.046875 0 L 0.5625 0 L 6.75 -19.203125 L 8.8125 -19.203125 L 15.015625 0 L 12.53125 0 Z M 5.171875 -7.09375 L 10.40625 -7.09375 L 7.78125 -15.828125 Z M 5.171875 -7.09375 "/></g></g></g><g fill="#ff2e00" fill-opacity="1"><g transform="translate(224.427521, 305.159073)"><g><path d="M 3.875 -2.0625 L 12.984375 -2.0625 L 12.984375 0 L 1.203125 0 L 1.203125 -1.90625 L 9.9375 -17.109375 L 1.296875 -17.109375 L 1.296875 -19.203125 L 12.625 -19.203125 L 12.625 -17.34375 Z M 3.875 -2.0625 "/></g></g></g><g fill="#ff2e00" fill-opacity="1"><g transform="translate(241.227825, 305.159073)"><g><path d="M 4.59375 0 L 2.171875 0 L 2.171875 -19.203125 L 4.59375 -19.203125 Z M 4.59375 0 "/></g></g></g><g fill="#ff2e00" fill-opacity="1"><g transform="translate(250.674876, 305.159073)"><g><path d="M 11.265625 -8.875 L 4.484375 -8.875 L 4.484375 -2.0625 L 12.390625 -2.0625 L 12.390625 0 L 2.0625 0 L 2.0625 -19.203125 L 12.265625 -19.203125 L 12.265625 -17.109375 L 4.484375 -17.109375 L 4.484375 -10.9375 L 11.265625 -10.9375 Z M 11.265625 -8.875 "/></g></g></g><g fill="#ff2e00" fill-opacity="1"><g transform="translate(266.776758, 305.159073)"><g><path d="M 7.875 -7.765625 L 4.5 -7.765625 L 4.5 0 L 2.0625 0 L 2.0625 -19.203125 L 7.453125 -19.203125 C 9.328125 -19.203125 10.75 -18.707031 11.71875 -17.71875 C 12.6875 -16.738281 13.171875 -15.304688 13.171875 -13.421875 C 13.171875 -12.234375 12.910156 -11.195312 12.390625 -10.3125 C 11.867188 -9.425781 11.128906 -8.757812 10.171875 -8.3125 L 13.875 -0.15625 L 13.875 0 L 11.28125 0 Z M 4.5 -9.828125 L 7.421875 -9.828125 C 8.429688 -9.828125 9.238281 -10.148438 9.84375 -10.796875 C 10.445312 -11.453125 10.75 -12.328125 10.75 -13.421875 C 10.75 -15.878906 9.628906 -17.109375 7.390625 -17.109375 L 4.5 -17.109375 Z M 4.5 -9.828125 "/></g></g></g><g fill="#ddfbd2" fill-opacity="1"><g transform="translate(152.674445, 335.633288)"><g><path d="M 3.796875 -2.515625 L 1.40625 -2.515625 L 1.40625 0 L 0.65625 0 L 0.65625 -5.6875 L 4.1875 -5.6875 L 4.1875 -5.078125 L 1.40625 -5.078125 L 1.40625 -3.125 L 3.796875 -3.125 Z M 3.796875 -2.515625 "/></g></g></g><g fill="#ddfbd2" fill-opacity="1"><g transform="translate(157.89632, 335.633288)"><g><path d="M 4.671875 -5.6875 L 4.671875 -1.828125 C 4.660156 -1.285156 4.488281 -0.84375 4.15625 -0.5 C 3.820312 -0.15625 3.367188 0.0351562 2.796875 0.078125 L 2.59375 0.078125 C 1.976562 0.078125 1.484375 -0.0859375 1.109375 -0.421875 C 0.742188 -0.765625 0.554688 -1.226562 0.546875 -1.8125 L 0.546875 -5.6875 L 1.296875 -5.6875 L 1.296875 -1.84375 C 1.296875 -1.425781 1.40625 -1.101562 1.625 -0.875 C 1.851562 -0.644531 2.175781 -0.53125 2.59375 -0.53125 C 3.019531 -0.53125 3.34375 -0.644531 3.5625 -0.875 C 3.789062 -1.101562 3.90625 -1.421875 3.90625 -1.828125 L 3.90625 -5.6875 Z M 4.671875 -5.6875 "/></g></g></g><g fill="#ddfbd2" fill-opacity="1"><g transform="translate(163.88382, 335.633288)"><g><path d="M 1.421875 -0.609375 L 4.109375 -0.609375 L 4.109375 0 L 0.65625 0 L 0.65625 -5.6875 L 1.421875 -5.6875 Z M 1.421875 -0.609375 "/></g></g></g><g fill="#ddfbd2" fill-opacity="1"><g transform="translate(168.988507, 335.633288)"><g><path d="M 1.421875 -0.609375 L 4.109375 -0.609375 L 4.109375 0 L 0.65625 0 L 0.65625 -5.6875 L 1.421875 -5.6875 Z M 1.421875 -0.609375 "/></g></g></g><g fill="#ddfbd2" fill-opacity="1"><g transform="translate(174.093194, 335.633288)"><g><path d="M 2.34375 -2.53125 C 1.695312 -2.71875 1.226562 -2.945312 0.9375 -3.21875 C 0.644531 -3.488281 0.5 -3.820312 0.5 -4.21875 C 0.5 -4.664062 0.675781 -5.035156 1.03125 -5.328125 C 1.382812 -5.617188 1.847656 -5.765625 2.421875 -5.765625 C 2.816406 -5.765625 3.164062 -5.6875 3.46875 -5.53125 C 3.78125 -5.382812 4.019531 -5.175781 4.1875 -4.90625 C 4.351562 -4.644531 4.4375 -4.359375 4.4375 -4.046875 L 3.6875 -4.046875 C 3.6875 -4.390625 3.578125 -4.660156 3.359375 -4.859375 C 3.140625 -5.054688 2.828125 -5.15625 2.421875 -5.15625 C 2.054688 -5.15625 1.769531 -5.070312 1.5625 -4.90625 C 1.351562 -4.738281 1.25 -4.515625 1.25 -4.234375 C 1.25 -3.992188 1.347656 -3.796875 1.546875 -3.640625 C 1.742188 -3.484375 2.078125 -3.335938 2.546875 -3.203125 C 3.023438 -3.066406 3.394531 -2.914062 3.65625 -2.75 C 3.925781 -2.59375 4.125 -2.40625 4.25 -2.1875 C 4.382812 -1.976562 4.453125 -1.734375 4.453125 -1.453125 C 4.453125 -0.984375 4.269531 -0.609375 3.90625 -0.328125 C 3.550781 -0.0546875 3.070312 0.078125 2.46875 0.078125 C 2.070312 0.078125 1.703125 0.00390625 1.359375 -0.140625 C 1.023438 -0.296875 0.765625 -0.503906 0.578125 -0.765625 C 0.398438 -1.023438 0.3125 -1.320312 0.3125 -1.65625 L 1.0625 -1.65625 C 1.0625 -1.3125 1.1875 -1.035156 1.4375 -0.828125 C 1.695312 -0.628906 2.039062 -0.53125 2.46875 -0.53125 C 2.863281 -0.53125 3.164062 -0.609375 3.375 -0.765625 C 3.582031 -0.929688 3.6875 -1.15625 3.6875 -1.4375 C 3.6875 -1.71875 3.585938 -1.929688 3.390625 -2.078125 C 3.203125 -2.234375 2.851562 -2.382812 2.34375 -2.53125 Z M 2.34375 -2.53125 "/></g></g></g><g fill="#ddfbd2" fill-opacity="1"><g transform="translate(179.639289, 335.633288)"><g><path d="M 4.59375 -5.078125 L 2.765625 -5.078125 L 2.765625 0 L 2.015625 0 L 2.015625 -5.078125 L 0.1875 -5.078125 L 0.1875 -5.6875 L 4.59375 -5.6875 Z M 4.59375 -5.078125 "/></g></g></g><g fill="#ddfbd2" fill-opacity="1"><g transform="translate(185.212726, 335.633288)"><g><path d="M 3.796875 -1.484375 L 1.421875 -1.484375 L 0.890625 0 L 0.109375 0 L 2.28125 -5.6875 L 2.9375 -5.6875 L 5.109375 0 L 4.34375 0 Z M 1.640625 -2.109375 L 3.578125 -2.109375 L 2.609375 -4.765625 Z M 1.640625 -2.109375 "/></g></g></g><g fill="#ddfbd2" fill-opacity="1"><g transform="translate(191.231477, 335.633288)"><g><path d="M 4.84375 -1.8125 C 4.769531 -1.207031 4.546875 -0.738281 4.171875 -0.40625 C 3.804688 -0.0820312 3.3125 0.078125 2.6875 0.078125 C 2.019531 0.078125 1.484375 -0.160156 1.078125 -0.640625 C 0.671875 -1.128906 0.46875 -1.773438 0.46875 -2.578125 L 0.46875 -3.125 C 0.46875 -3.65625 0.5625 -4.117188 0.75 -4.515625 C 0.9375 -4.921875 1.203125 -5.226562 1.546875 -5.4375 C 1.898438 -5.65625 2.300781 -5.765625 2.75 -5.765625 C 3.351562 -5.765625 3.835938 -5.59375 4.203125 -5.25 C 4.566406 -4.914062 4.78125 -4.453125 4.84375 -3.859375 L 4.09375 -3.859375 C 4.03125 -4.316406 3.890625 -4.644531 3.671875 -4.84375 C 3.453125 -5.050781 3.144531 -5.15625 2.75 -5.15625 C 2.269531 -5.15625 1.894531 -4.976562 1.625 -4.625 C 1.351562 -4.269531 1.21875 -3.765625 1.21875 -3.109375 L 1.21875 -2.5625 C 1.21875 -1.9375 1.347656 -1.441406 1.609375 -1.078125 C 1.867188 -0.710938 2.226562 -0.53125 2.6875 -0.53125 C 3.101562 -0.53125 3.421875 -0.625 3.640625 -0.8125 C 3.867188 -1.007812 4.019531 -1.34375 4.09375 -1.8125 Z M 4.84375 -1.8125 "/></g></g></g><g fill="#ddfbd2" fill-opacity="1"><g transform="translate(197.238506, 335.633288)"><g><path d="M 2.109375 -2.640625 L 1.40625 -1.921875 L 1.40625 0 L 0.65625 0 L 0.65625 -5.6875 L 1.40625 -5.6875 L 1.40625 -2.875 L 3.9375 -5.6875 L 4.84375 -5.6875 L 2.609375 -3.171875 L 5.015625 0 L 4.125 0 Z M 2.109375 -2.640625 "/></g></g></g><g fill="#ddfbd2" fill-opacity="1"><g transform="translate(203.054129, 335.633288)"><g/></g></g><g fill="#ddfbd2" fill-opacity="1"><g transform="translate(205.834595, 335.633288)"><g><path d="M 0.65625 0 L 0.65625 -5.6875 L 2.265625 -5.6875 C 2.765625 -5.6875 3.203125 -5.578125 3.578125 -5.359375 C 3.960938 -5.140625 4.253906 -4.828125 4.453125 -4.421875 C 4.660156 -4.023438 4.769531 -3.5625 4.78125 -3.03125 L 4.78125 -2.671875 C 4.78125 -2.140625 4.675781 -1.671875 4.46875 -1.265625 C 4.257812 -0.859375 3.960938 -0.546875 3.578125 -0.328125 C 3.191406 -0.117188 2.742188 -0.0078125 2.234375 0 Z M 1.40625 -5.078125 L 1.40625 -0.609375 L 2.203125 -0.609375 C 2.773438 -0.609375 3.222656 -0.785156 3.546875 -1.140625 C 3.867188 -1.503906 4.03125 -2.019531 4.03125 -2.6875 L 4.03125 -3.015625 C 4.03125 -3.660156 3.878906 -4.160156 3.578125 -4.515625 C 3.273438 -4.878906 2.84375 -5.066406 2.28125 -5.078125 Z M 1.40625 -5.078125 "/></g></g></g><g fill="#ddfbd2" fill-opacity="1"><g transform="translate(211.880687, 335.633288)"><g><path d="M 3.875 -2.625 L 1.40625 -2.625 L 1.40625 -0.609375 L 4.28125 -0.609375 L 4.28125 0 L 0.65625 0 L 0.65625 -5.6875 L 4.234375 -5.6875 L 4.234375 -5.078125 L 1.40625 -5.078125 L 1.40625 -3.25 L 3.875 -3.25 Z M 3.875 -2.625 "/></g></g></g><g fill="#ddfbd2" fill-opacity="1"><g transform="translate(217.22756, 335.633288)"><g><path d="M 2.546875 -1 L 4.171875 -5.6875 L 4.984375 -5.6875 L 2.875 0 L 2.21875 0 L 0.109375 -5.6875 L 0.921875 -5.6875 Z M 2.546875 -1 "/></g></g></g></svg>