<svg xmlns="http://www.w3.org/2000/svg" xmlns:xlink="http://www.w3.org/1999/xlink" width="500" zoomAndPan="magnify" viewBox="0 0 375 374.999991" height="500" preserveAspectRatio="xMidYMid meet" version="1.0"><defs><clipPath id="caf6dd734d"><path d="M 110.527344 75.019531 L 264.191406 75.019531 L 264.191406 300.066406 L 110.527344 300.066406 Z M 110.527344 75.019531 " clip-rule="nonzero"/></clipPath></defs><g clip-path="url(#caf6dd734d)"><path fill="#6f00ff" d="M 257.292969 161.070312 L 250.5625 138.738281 L 262.890625 157.457031 Z M 259.859375 189.507812 L 254.976562 188.703125 L 225.660156 153.242188 L 256.492188 162.339844 Z M 243.210938 234.375 L 238.292969 223.523438 L 232.828125 187.515625 L 254.015625 189.679688 Z M 222.570312 259.902344 L 211.589844 259.0625 L 235.746094 227.238281 Z M 201.941406 297.824219 L 192.089844 276.75 L 200.820312 234.816406 L 209.992188 259.5625 Z M 160.804688 230.332031 L 166.425781 251.914062 L 159.671875 258.226562 Z M 157.546875 166.542969 L 180.28125 166.542969 L 188.59375 182.699219 L 186.183594 194.300781 L 171.007812 181.113281 Z M 119.589844 165.828125 L 118.886719 162.960938 L 135.289062 160.785156 L 153.78125 165.863281 L 126.535156 170.382812 Z M 112.453125 152.164062 L 117.019531 149.605469 L 121.546875 152.449219 L 117.972656 161.648438 L 111.660156 157.015625 Z M 166.503906 91.433594 L 177.453125 93.925781 L 177.453125 99.492188 L 168.800781 100.171875 Z M 170.847656 78.675781 L 175.871094 86.640625 C 175.882812 86.652344 175.890625 86.664062 175.902344 86.6875 L 178.855469 90.414062 L 177.691406 92.863281 L 166.480469 90.3125 Z M 193.265625 76.421875 L 197.96875 91.34375 L 183.945312 83.015625 Z M 226.632812 118.875 L 202.132812 103.648438 L 231.6875 115.660156 Z M 248.019531 135.328125 L 224.277344 151.449219 L 214.9375 135.328125 L 226.746094 120.269531 Z M 248.675781 136.199219 L 256.175781 161.117188 L 225.363281 152.027344 Z M 232.386719 186.382812 L 214.96875 173.160156 L 224.234375 153.230469 L 253.425781 188.535156 Z M 215.707031 175.085938 L 231.6875 187.207031 L 236.664062 220.019531 Z M 204.542969 210.832031 L 209.519531 255.167969 L 201.226562 232.800781 Z M 200.449219 230.714844 L 187.597656 196.636719 L 204.023438 206.933594 Z M 169.21875 227.65625 L 179.488281 276.828125 L 167.589844 251.984375 Z M 168.40625 223.644531 L 166.71875 248.71875 L 160.972656 226.707031 L 169.625 205.460938 Z M 199.9375 233.207031 L 181.105469 279.265625 L 169.660156 224.4375 Z M 198.828125 231.757812 L 169.511719 223.273438 L 170.847656 203.386719 Z M 186.058594 195.636719 L 199.261719 230.648438 L 171.121094 202.117188 L 180.609375 190.890625 Z M 214.40625 174.871094 L 236.605469 222.46875 L 205.265625 206.390625 Z M 189.632812 183.027344 L 213.464844 174.214844 L 204.292969 205.824219 L 187.136719 195.058594 Z M 212.355469 173.464844 L 189.429688 181.941406 L 181.617188 166.769531 Z M 203.207031 149.976562 L 213.351562 172.570312 L 181.898438 165.714844 Z M 158.339844 152.765625 L 182.542969 152.765625 L 156.257812 165.421875 L 137.152344 160.175781 Z M 122.675781 152.539062 L 141.035156 136.132812 L 155 132.574219 C 155.011719 132.574219 155.011719 132.5625 155.023438 132.5625 C 155.023438 132.5625 155.035156 132.5625 155.035156 132.5625 L 162.828125 129.992188 L 157.785156 151.8125 L 135.207031 159.710938 L 119.058594 161.839844 Z M 122.15625 151.542969 L 118.097656 148.992188 L 136.703125 138.546875 Z M 159.84375 116.847656 L 146.984375 120.191406 L 165.179688 102.933594 Z M 192.574219 111.636719 L 185.359375 118.308594 L 178.707031 104.285156 L 198.003906 93.65625 Z M 209.019531 118.84375 L 193.707031 111.636719 L 196.75 101.574219 L 224.707031 118.96875 Z M 185.449219 152.390625 C 185.460938 152.367188 185.460938 152.347656 185.460938 152.324219 C 185.460938 152.3125 185.472656 152.300781 185.472656 152.277344 C 185.472656 152.234375 185.472656 152.175781 185.460938 152.121094 L 182.566406 137.050781 L 202.449219 149.183594 L 181.625 164.570312 Z M 181.320312 136.359375 L 184.273438 151.675781 L 158.925781 151.675781 L 163.960938 129.902344 Z M 181.738281 135.351562 L 164.988281 129.117188 L 185.300781 119.75 L 206.984375 119.917969 Z M 193.152344 112.578125 L 206.417969 118.820312 L 186.570312 118.671875 Z M 154.449219 125.140625 L 146.644531 121.402344 L 160.296875 117.84375 L 183.0625 119.589844 L 163.550781 128.585938 Z M 155.105469 131.394531 L 153.519531 128.800781 L 154.527344 126.34375 L 161.945312 129.140625 Z M 213.851562 134.953125 L 203.296875 148.425781 L 182.835938 135.949219 L 209.042969 119.929688 L 225.535156 120.054688 Z M 214.292969 172.027344 L 204.054688 149.21875 L 214.222656 136.246094 L 223.5 152.242188 Z M 183.1875 83.832031 L 197.8125 92.523438 L 178.539062 103.140625 L 178.539062 93.609375 Z M 177.453125 100.589844 L 177.453125 104.058594 C 177.453125 104.058594 177.453125 104.066406 177.453125 104.078125 C 177.453125 104.101562 177.453125 104.125 177.464844 104.148438 C 177.464844 104.160156 177.464844 104.179688 177.476562 104.191406 C 177.476562 104.214844 177.488281 104.238281 177.5 104.261719 C 177.5 104.261719 177.5 104.273438 177.507812 104.285156 L 184.296875 118.59375 L 161.019531 116.816406 L 166.933594 101.40625 Z M 145.410156 122.015625 L 153.53125 125.914062 L 152.410156 128.644531 C 152.355469 128.800781 152.367188 128.984375 152.457031 129.128906 L 154.019531 131.703125 L 141.566406 134.875 Z M 158.6875 165.453125 L 184.035156 153.253906 L 180.214844 165.453125 Z M 171.164062 182.675781 L 179.78125 190.175781 L 170.949219 200.636719 Z M 191.046875 276.421875 L 181.933594 280.125 L 198.933594 238.546875 Z M 205.265625 207.613281 L 236.945312 223.863281 L 210.945312 258.113281 Z M 264.101562 157.320312 L 249.433594 135.035156 C 249.421875 135.035156 249.421875 135.023438 249.410156 135.023438 C 249.386719 134.976562 249.34375 134.941406 249.308594 134.910156 C 249.296875 134.910156 249.296875 134.898438 249.285156 134.898438 L 227.613281 119.546875 L 233.15625 116.011719 C 233.328125 115.898438 233.429688 115.703125 233.40625 115.5 C 233.394531 115.296875 233.257812 115.125 233.066406 115.046875 L 197.089844 100.429688 L 199.429688 92.691406 C 199.441406 92.648438 199.453125 92.601562 199.453125 92.546875 C 199.453125 92.523438 199.453125 92.511719 199.453125 92.5 C 199.441406 92.464844 199.441406 92.421875 199.429688 92.386719 C 199.429688 92.386719 199.429688 92.375 199.429688 92.375 L 194.078125 75.390625 C 194.023438 75.222656 193.898438 75.097656 193.730469 75.039062 C 193.570312 74.984375 193.390625 75.007812 193.242188 75.109375 L 182.644531 82.621094 C 182.632812 82.621094 182.632812 82.621094 182.632812 82.621094 C 182.597656 82.644531 182.578125 82.675781 182.542969 82.699219 C 182.53125 82.710938 182.53125 82.722656 182.519531 82.734375 C 182.507812 82.746094 182.496094 82.765625 182.488281 82.777344 C 182.476562 82.789062 182.476562 82.800781 182.476562 82.8125 C 182.476562 82.8125 182.464844 82.824219 182.464844 82.824219 L 179.375 89.328125 L 176.773438 86.03125 L 171.175781 77.171875 C 171.074219 76.988281 170.871094 76.898438 170.667969 76.921875 C 170.464844 76.945312 170.28125 77.078125 170.214844 77.273438 L 165.25 90.515625 C 165.25 90.527344 165.25 90.527344 165.238281 90.539062 C 165.238281 90.550781 165.226562 90.574219 165.226562 90.585938 C 165.214844 90.621094 165.214844 90.640625 165.214844 90.664062 C 165.214844 90.675781 165.214844 90.675781 165.214844 90.6875 C 165.214844 90.734375 165.214844 90.789062 165.226562 90.835938 C 165.226562 90.835938 165.226562 90.847656 165.226562 90.847656 L 167.703125 100.25 L 166.503906 100.351562 C 166.503906 100.351562 166.492188 100.351562 166.492188 100.351562 C 166.378906 100.363281 166.265625 100.410156 166.1875 100.488281 C 166.1875 100.488281 166.175781 100.488281 166.175781 100.5 L 144.699219 120.847656 C 144.699219 120.859375 144.6875 120.871094 144.675781 120.882812 C 144.664062 120.894531 144.652344 120.90625 144.640625 120.917969 C 144.628906 120.949219 144.609375 120.972656 144.597656 121.007812 C 144.585938 121.03125 144.574219 121.039062 144.574219 121.050781 C 144.5625 121.0625 144.5625 121.074219 144.550781 121.085938 L 140.308594 135.261719 L 111.695312 151.347656 C 111.546875 151.429688 111.445312 151.574219 111.421875 151.734375 L 110.539062 157.171875 C 110.507812 157.375 110.585938 157.582031 110.753906 157.703125 L 117.734375 162.828125 L 118.582031 166.292969 C 118.617188 166.429688 118.695312 166.542969 118.808594 166.621094 L 126.113281 171.414062 C 126.226562 171.480469 126.375 171.515625 126.511719 171.492188 L 156.109375 166.578125 L 170.089844 181.714844 L 169.839844 202.027344 L 159.898438 226.46875 C 159.875 226.523438 159.867188 226.570312 159.867188 226.625 C 159.867188 226.636719 159.867188 226.636719 159.867188 226.648438 L 158.53125 259.507812 C 158.519531 259.722656 158.644531 259.925781 158.847656 260.015625 C 159.050781 260.105469 159.277344 260.074219 159.445312 259.925781 L 166.867188 252.992188 L 180.449219 281.351562 C 180.449219 281.363281 180.460938 281.363281 180.460938 281.375 C 180.472656 281.382812 180.472656 281.394531 180.484375 281.394531 C 180.507812 281.441406 180.539062 281.488281 180.574219 281.519531 C 180.574219 281.519531 180.585938 281.519531 180.585938 281.519531 C 180.621094 281.554688 180.664062 281.578125 180.710938 281.601562 C 180.710938 281.601562 180.722656 281.609375 180.734375 281.609375 C 180.777344 281.632812 180.824219 281.644531 180.867188 281.644531 C 180.878906 281.644531 180.878906 281.65625 180.890625 281.65625 C 180.902344 281.65625 180.925781 281.65625 180.9375 281.65625 C 180.980469 281.65625 181.027344 281.644531 181.082031 281.632812 C 181.09375 281.632812 181.105469 281.632812 181.117188 281.621094 C 181.117188 281.621094 181.128906 281.621094 181.140625 281.609375 L 191.242188 277.519531 L 201.644531 299.75 C 201.738281 299.941406 201.929688 300.066406 202.144531 300.066406 C 202.167969 300.066406 202.1875 300.066406 202.199219 300.066406 C 202.4375 300.035156 202.628906 299.863281 202.675781 299.636719 L 210.988281 260.105469 L 222.886719 261.023438 C 223.125 261.046875 223.339844 260.898438 223.429688 260.683594 L 237.804688 225.050781 L 242.871094 236.257812 C 242.976562 236.472656 243.191406 236.597656 243.425781 236.574219 C 243.652344 236.550781 243.84375 236.382812 243.902344 236.15625 L 255.097656 189.824219 L 260.394531 190.699219 C 260.5625 190.722656 260.730469 190.664062 260.855469 190.550781 C 260.980469 190.4375 261.050781 190.257812 261.027344 190.085938 L 257.566406 162.191406 L 263.945312 158.078125 C 264.070312 158 264.160156 157.875 264.183594 157.726562 C 264.214844 157.589844 264.183594 157.445312 264.101562 157.320312 " fill-opacity="1" fill-rule="nonzero"/></g></svg>